<svg xmlns="http://www.w3.org/2000/svg" width="48" height="48" viewBox="0 0 48 48" fill="none">
  <defs>
    <linearGradient id="grad1" x1="0" y1="0" x2="48" y2="48" gradientUnits="userSpaceOnUse">
      <stop offset="0%" stop-color="#8B5CF6"/>
      <stop offset="100%" stop-color="#60A5FA"/>
    </linearGradient>
    <linearGradient id="grad2" x1="0" y1="0" x2="48" y2="20" gradientUnits="userSpaceOnUse">
      <stop offset="0%" stop-color="#A78BFA"/>
      <stop offset="100%" stop-color="#7DD3FC"/>
    </linearGradient>
  </defs>
  <rect x="6" y="9" width="36" height="33" rx="4.5" fill="url(#grad1)"/>
  <rect x="6" y="9" width="36" height="10.5" rx="4.5" fill="url(#grad2)"/>
  <rect x="6" y="15" width="36" height="4.5" fill="url(#grad2)"/>
  <rect x="13.5" y="6" width="3" height="6" rx="1.5" fill="#8B5CF6"/>
  <rect x="31.5" y="6" width="3" height="6" rx="1.5" fill="#8B5CF6"/>
  <circle cx="15" cy="27" r="1.8" fill="rgba(255,255,255,0.9)"/>
  <circle cx="24" cy="27" r="1.8" fill="rgba(255,255,255,0.9)"/>
  <circle cx="33" cy="27" r="1.8" fill="rgba(255,255,255,0.9)"/>
  <circle cx="15" cy="33" r="1.8" fill="rgba(255,255,255,0.9)"/>
  <circle cx="24" cy="33" r="1.8" fill="rgba(255,255,255,0.5)"/>
  <circle cx="33" cy="33" r="1.8" fill="rgba(255,255,255,0.9)"/>
  <circle cx="15" cy="39" r="1.8" fill="rgba(255,255,255,0.9)"/>
  <circle cx="24" cy="39" r="1.8" fill="rgba(255,255,255,0.9)"/>
  <circle cx="33" cy="39" r="1.8" fill="rgba(255,255,255,0.9)"/>
  <path d="M10 24 Q18 19 24 24 Q30 29 38 24" stroke="rgba(255,255,255,0.6)" stroke-width="1.2" stroke-linecap="round" fill="none"/>
</svg>